<svg xmlns="http://www.w3.org/2000/svg" viewBox="0 0 243.64 378.25"><title>phoneb</title><g id="Capa_2" data-name="Capa 2"><g id="Capa_1-2" data-name="Capa 1"><path d="M219.7,0H24A24,24,0,0,0,0,24V354.3a24,24,0,0,0,24,23.95H219.7a24,24,0,0,0,23.94-23.95V24A24,24,0,0,0,219.7,0ZM12,60.19H231.64V310.34H12ZM24,12H219.7a12,12,0,0,1,11.94,12V52.19H12V24A12,12,0,0,1,24,12ZM219.7,366.25H24A12,12,0,0,1,12,354.3v-36H231.64v36a12,12,0,0,1-11.94,11.95Z"/><path d="M121.82,323.64a19.66,19.66,0,1,0,19.65,19.65,19.68,19.68,0,0,0-19.65-19.65Zm0,31.31a11.66,11.66,0,1,1,11.65-11.66A11.67,11.67,0,0,1,121.82,355Z"/><path d="M94.62,38.12H149a4,4,0,1,0,0-8H94.62a4,4,0,0,0,0,8Z"/><path d="M80.23,38.12a4,4,0,0,0,2.82-6.83A4,4,0,0,0,77.39,37a4.07,4.07,0,0,0,2.84,1.17Z"/></g></g></svg>