<svg xmlns="http://www.w3.org/2000/svg" viewBox="0 0 512 511.95"><defs><style>.cls-1{fill:#6d6e71;}</style></defs><title>dinero</title><g id="Capa_2" data-name="Capa 2"><g id="Capa_1-2" data-name="Capa 1"><path class="cls-1" d="M460,395l-.12-.3c-9.2-21.54-30.79-29.5-56.33-20.77l-69.67,19.27c-4-12.2-14.08-22.58-28.28-27.85l-.27-.1-76.58-26C222.37,331,202.4,309.9,165,309.9c-26.13,0-49.24,17.92-62.46,37.46H10a10,10,0,0,0-10,10V483.43a10,10,0,0,0,10,10H69.46a10,10,0,0,0,10-10V474.8h27.88a10,10,0,0,0,10-10v-2.88c16.25,1.42,21.6,4.5,36.53,13.11a606,606,0,0,0,60.07,30.67l.44.19A89.79,89.79,0,0,0,246.56,512a79.66,79.66,0,0,0,33.13-7.09l154-55.14a6.89,6.89,0,0,0,.81-.33C449.2,442.62,471.14,423.54,460,395ZM59.46,473.43H20V367.35H59.46ZM97.34,454.8H79.46V367.35H97.34ZM426.5,431.05,272.57,486.16l-.45.18-.4.17c-21.44,9.85-41.81,3.95-49.8.85a578.41,578.41,0,0,1-58.06-29.66c-16.37-9.43-24.25-14-46.52-15.82V361.34C126.82,345.8,145.2,329.9,165,329.9c34,0,48.39,22.1,48.95,23a10,10,0,0,0,5.31,4.24l79.47,27c12.69,4.76,19.4,15.63,16.32,26.47A19.47,19.47,0,0,1,291.13,424l-89.59-28.39a10,10,0,1,0-6,19.07l89.75,28.44.29.08A39.47,39.47,0,0,0,334.31,416c.23-.81.43-1.62.61-2.43L410,392.81c10.84-3.7,25.08-5,31.42,9.56C448,419.51,430.93,428.94,426.5,431.05Z"/><path class="cls-1" d="M502,33.87H442.54a10,10,0,0,0-10,10V52.5H404.66a10,10,0,0,0-10,10v2.88c-16.25-1.42-21.6-4.5-36.53-13.11A605.32,605.32,0,0,0,298.05,21.6l-.44-.19c-10.17-4-36.82-11.87-65.29,1L192.08,36.85,158.16,2.93a10,10,0,0,0-14.15,0L32.66,114.29a9.91,9.91,0,0,0,0,14.14L222.94,318.72c3.05,3,10.18,4,14.15,0L338.75,217.05q4,.34,8.23.35c26.13,0,49.24-17.92,62.46-37.45H502a10,10,0,0,0,10-10V43.87A10,10,0,0,0,502,33.87ZM176.45,126.61c1.84,15.36,12.91,29.05,30,35.38l.27.1,20,6.79a37,37,0,1,1-50.22-42.27Zm20-39a39.23,39.23,0,0,0-16.29,17.21,57,57,0,1,0,65.53,70.56l33.76,11.46a63.85,63.85,0,0,0,10.6,50.68l-22.84,22.84a63.55,63.55,0,0,0-74.39,0L91.07,158.56a63.53,63.53,0,0,0,0-74.4l22.82-22.82a63.53,63.53,0,0,0,74.4,0L209.91,83A39.67,39.67,0,0,0,196.45,87.56Zm108,135.5a43.69,43.69,0,0,1-6.39-20.8,77.36,77.36,0,0,0,17.63,9.55ZM151.09,24.14l22.79,22.79a43.56,43.56,0,0,1-45.59,0ZM76.66,98.56a43.56,43.56,0,0,1,0,45.59L53.87,121.36ZM230,297.5l-22.79-22.79a43.56,43.56,0,0,1,45.57,0ZM347,197.4a72.76,72.76,0,0,1-10.43-.73h0c-21.6-3.14-33.21-15.41-37-20.27-.21-.3-1.08-1.44-1.2-1.63a10,10,0,0,0-5.51-4.58l-79.51-27c-12.69-4.77-19.4-15.63-16.32-26.47v0a19.49,19.49,0,0,1,23.93-13.42l89.59,28.39a10,10,0,1,0,6-19.06L245.25,90l-.62-.62,0,0L207.72,52.49l31.71-11.36.34-.13.11,0,.4-.17c21.43-9.86,41.81-4,49.8-.85a581.19,581.19,0,0,1,58.06,29.65c16.37,9.44,24.25,14,46.52,15.83V166C385.18,181.5,366.8,197.4,347,197.4ZM414.66,72.5h17.88v87.44H414.66ZM492,159.94H452.54V53.87H492Z"/></g></g></svg>