<?xml version="1.0" encoding="utf-8"?>
<!-- Generator: Adobe Illustrator 24.0.1, SVG Export Plug-In . SVG Version: 6.00 Build 0)  -->
<svg version="1.1" id="Capa_1" xmlns="http://www.w3.org/2000/svg" xmlns:xlink="http://www.w3.org/1999/xlink" x="0px" y="0px"
	 viewBox="0 0 384 384" style="enable-background:new 0 0 384 384;" xml:space="preserve">
<style type="text/css">
	.st0{fill:#6D6E71;}
</style>
<title>inb</title>
<g id="Capa_2_1_">
	<g id="Capa_1-2">
		<path class="st0" d="M383.9,384L383.9,384h0.1V243.1c0-68.9-14.8-122-95.4-122c-38.7,0-64.7,21.3-75.3,41.4h-1.1v-34.9h-76.4V384
			h79.5V257c0-33.4,6.3-65.7,47.7-65.7c40.8,0,41.4,38.1,41.4,67.9V384H383.9z"/>
		<rect x="6.3" y="127.6" class="st0" width="79.6" height="256.4"/>
		<path class="st0" d="M46.1,0C20.6,0,0,20.6,0,46.1c0,25.5,20.7,46.6,46.1,46.6s46.1-21.1,46.1-46.6C92.2,20.7,71.6,0,46.1,0z"/>
	</g>
</g>
</svg>
