<svg xmlns="http://www.w3.org/2000/svg" viewBox="0 0 35.46 32.1"><defs><style>.cls-1{fill:none;stroke:#000;stroke-linecap:round;stroke-linejoin:round;stroke-width:1.44px;}</style></defs><title>ladrillos</title><g id="Capa_2" data-name="Capa 2"><g id="Capa_1-2" data-name="Capa 1"><polygon class="cls-1" points="0.72 0.72 25 0.72 25 8.38 0.72 8.38 0.72 0.72 0.72 0.72"/><polygon class="cls-1" points="0.72 8.38 34.74 8.38 34.74 16.05 0.72 16.05 0.72 8.38 0.72 8.38"/><polygon class="cls-1" points="0.72 16.05 25 16.05 25 23.72 0.72 23.72 0.72 16.05 0.72 16.05"/><polygon class="cls-1" points="0.72 23.72 34.74 23.72 34.74 31.38 0.72 31.38 0.72 23.72 0.72 23.72"/><line class="cls-1" x1="12.86" y1="0.72" x2="12.86" y2="8.39"/><line class="cls-1" x1="12.86" y1="16.05" x2="12.86" y2="23.72"/><line class="cls-1" x1="21.16" y1="8.39" x2="21.16" y2="16.05"/><line class="cls-1" x1="7.29" y1="8.39" x2="7.29" y2="16.05"/><line class="cls-1" x1="21.16" y1="23.72" x2="21.16" y2="31.38"/><line class="cls-1" x1="7.29" y1="23.72" x2="7.29" y2="31.38"/></g></g></svg>