<?xml version="1.0" encoding="utf-8"?>
<!-- Generator: Adobe Illustrator 24.0.1, SVG Export Plug-In . SVG Version: 6.00 Build 0)  -->
<svg version="1.1" id="Capa_1" xmlns="http://www.w3.org/2000/svg" xmlns:xlink="http://www.w3.org/1999/xlink" x="0px" y="0px"
	 viewBox="0 0 243.6 378.3" style="enable-background:new 0 0 243.6 378.3;" xml:space="preserve">
<style type="text/css">
	.st0{fill:#FFFFFF;}
</style>
<title>phoneb</title>
<g id="Capa_2_1_">
	<g id="Capa_1-2">
		<path class="st0" d="M219.7,0H24C10.7,0,0,10.7,0,24v330.3c0,13.2,10.8,24,24,24h195.7c13.2,0,23.9-10.7,23.9-24V24
			C243.6,10.8,232.9,0,219.7,0z M12,60.2h219.6v250.1H12V60.2z M24,12h195.7c6.6,0,11.9,5.4,11.9,12v28.2H12V24
			C12,17.4,17.4,12,24,12z M219.7,366.3H24c-6.6,0-12-5.3-12-12v-36h219.6v36C231.6,360.9,226.3,366.2,219.7,366.3z"/>
		<path class="st0" d="M121.8,323.6c-10.9,0-19.7,8.8-19.7,19.6c0,10.9,8.8,19.7,19.7,19.7c10.9,0,19.7-8.8,19.7-19.7c0,0,0,0,0,0
			C141.5,332.4,132.7,323.7,121.8,323.6z M121.8,355c-6.4,0-11.7-5.2-11.7-11.6c0-6.4,5.2-11.7,11.6-11.7c6.4,0,11.7,5.2,11.7,11.6
			c0,0,0,0,0,0C133.5,349.7,128.3,355,121.8,355C121.8,355,121.8,355,121.8,355L121.8,355z"/>
		<path class="st0" d="M94.6,38.1H149c2.2,0,4-1.8,4-4s-1.8-4-4-4H94.6c-2.2,0-4,1.8-4,4S92.4,38.1,94.6,38.1z"/>
		<path class="st0" d="M80.2,38.1c2.2,0,4-1.8,4-4c0-1.1-0.4-2.1-1.2-2.8c-1.6-1.6-4.1-1.6-5.7,0c-1.6,1.6-1.6,4.1,0,5.7
			C78.1,37.7,79.2,38.2,80.2,38.1L80.2,38.1z"/>
	</g>
</g>
</svg>
