<svg xmlns="http://www.w3.org/2000/svg" viewBox="0 0 108.39 91.77"><title>checkbox</title><g id="Capa_2" data-name="Capa 2"><g id="Capa_1-2" data-name="Capa 1"><path d="M90.47,50.38a1.76,1.76,0,0,0-.79-.19,2,2,0,0,0-1.49.65L84,55a1.92,1.92,0,0,0-.59,1.43V73A10.46,10.46,0,0,1,73,83.43H18.77a10,10,0,0,1-7.36-3.07A10,10,0,0,1,8.34,73V18.77a10,10,0,0,1,3.07-7.36,10,10,0,0,1,7.36-3.07H73a11.58,11.58,0,0,1,2.93.39,2,2,0,0,0,.59.13A2.06,2.06,0,0,0,78,8.21L81.21,5a2,2,0,0,0,.59-1.89,2,2,0,0,0-1.18-1.5A17.82,17.82,0,0,0,73,0H18.77A18.08,18.08,0,0,0,5.51,5.51,18.08,18.08,0,0,0,0,18.77V73A18.12,18.12,0,0,0,5.51,86.27a18.07,18.07,0,0,0,13.26,5.5H73A18.78,18.78,0,0,0,91.77,73V52.27a1.89,1.89,0,0,0-1.3-1.89Z"/><path d="M106.83,13,99.66,5.8a5.18,5.18,0,0,0-7.43,0L50.05,48,32.91,30.83a5.2,5.2,0,0,0-7.43,0L18.32,38a5.18,5.18,0,0,0,0,7.43l28,28a5.2,5.2,0,0,0,7.43,0L106.83,20.4a5.2,5.2,0,0,0,0-7.43Z"/></g></g></svg>