<?xml version="1.0" encoding="utf-8"?>
<!-- Generator: Adobe Illustrator 24.0.1, SVG Export Plug-In . SVG Version: 6.00 Build 0)  -->
<svg version="1.1" id="Capa_1" xmlns="http://www.w3.org/2000/svg" xmlns:xlink="http://www.w3.org/1999/xlink" x="0px" y="0px"
	 viewBox="0 0 72 56.6" style="enable-background:new 0 0 72 56.6;" xml:space="preserve">
<style type="text/css">
	.st0{fill:#6D6E71;}
</style>
<title>mailb</title>
<g id="Capa_2_1_">
	<g id="Capa_1-2">
		<path class="st0" d="M65.6,56.6c1.6,0,3.1-0.5,4.2-1.6L49.4,34.6l-1.4,1c-1.5,1.1-2.8,2-3.7,2.6c-1.2,0.8-2.5,1.4-3.8,1.9
			c-1.4,0.6-2.9,1-4.4,1H36c-1.5,0-3-0.4-4.4-1c-1.3-0.5-2.6-1.2-3.8-1.9c-1-0.6-2.2-1.5-3.8-2.6l-1.4-1L2.2,55
			c1.2,1,2.7,1.6,4.2,1.6L65.6,56.6z"/>
		<path class="st0" d="M4.1,21.7c-1.5-1-2.9-2.2-4.1-3.5v31l18-18C14.4,28.7,9.8,25.5,4.1,21.7L4.1,21.7z"/>
		<path class="st0" d="M68,21.7c-5.5,3.7-10.1,6.9-14,9.6l18,18v-31C70.8,19.6,69.5,20.8,68,21.7L68,21.7z"/>
		<path class="st0" d="M65.6,0H6.4C4.6-0.1,2.8,0.7,1.7,2.1C0.5,3.6-0.1,5.4,0,7.3c0.1,2,0.9,3.9,2.2,5.5c1.3,1.8,2.9,3.4,4.7,4.6
			l8.2,5.7l6.5,4.5l4.1,2.8l0.6,0.4l1.1,0.8c0.9,0.6,1.6,1.1,2.2,1.5s1.3,0.8,2.1,1.3c0.7,0.4,1.5,0.8,2.4,1.1
			c0.6,0.2,1.3,0.3,2,0.4l0,0c0.7,0,1.4-0.1,2-0.4c0.8-0.3,1.6-0.6,2.3-1.1c0.8-0.5,1.5-0.9,2.1-1.3s1.3-0.9,2.2-1.5l1.1-0.8
			l0.6-0.4l4.1-2.8l14.8-10.2c1.9-1.3,3.6-3,4.9-4.9c1.3-1.8,2-3.9,2-6.1c0-1.7-0.7-3.4-1.9-4.5C68.9,0.7,67.3,0,65.6,0z"/>
	</g>
</g>
</svg>
