<?xml version="1.0" encoding="utf-8"?>
<!-- Generator: Adobe Illustrator 24.0.1, SVG Export Plug-In . SVG Version: 6.00 Build 0)  -->
<svg version="1.1" id="Capa_1" xmlns="http://www.w3.org/2000/svg" xmlns:xlink="http://www.w3.org/1999/xlink" x="0px" y="0px"
	 viewBox="0 0 384.6 386.1" style="enable-background:new 0 0 384.6 386.1;" xml:space="preserve">
<style type="text/css">
	.st0{clip-path:url(#SVGID_2_);}
	.st1{fill:#FFFFFF;}
</style>
<title>celularb</title>
<g id="Capa_2_1_">
	<g id="Capa_1-2">
		<g>
			<defs>
				<rect id="SVGID_1_" y="-0.8" width="385" height="387.8"/>
			</defs>
			<clipPath id="SVGID_2_">
				<use xlink:href="#SVGID_1_"  style="overflow:visible;"/>
			</clipPath>
			<g class="st0">
				<path class="st1" d="M77.9,256.6c37.3,44.9,83.7,81.3,136.2,106.7c19.9,9.4,46.6,20.6,76.2,22.6c1.8,0.1,3.6,0.2,5.4,0.2
					c19.9,0,35.9-6.9,49-21c0.1-0.1,0.2-0.3,0.3-0.4c4.9-5.6,10-10.9,15.4-16c3.8-3.6,7.6-7.4,11.3-11.2c17-17.8,17-40.3-0.2-57.5
					l-48.1-48.1c-8.2-8.5-17.9-13-28.2-13s-20.1,4.5-28.5,12.9l-28.7,28.6c-2.6-1.5-5.4-2.9-7.9-4.2c-3-1.5-5.9-3.1-8.8-4.8
					c-26.1-16.6-49.8-38.2-72.4-65.9c-11.4-14.5-19.1-26.6-24.5-39c7.5-6.8,14.6-13.9,21.4-20.9c2.4-2.5,4.9-5,7.4-7.4
					c8.6-8.6,13.3-18.6,13.3-28.8s-4.6-20.2-13.3-28.8l-23.8-23.8c-2.8-2.8-5.4-5.5-8.2-8.3c-5.3-5.4-10.8-11-16.2-16.1
					C97,4.2,87.3,0,77.1,0S57.1,4.2,48.6,12.4L18.7,42.3C8,52.8,1.5,66.8,0.3,81.7c-1.5,19.1,2,39.4,11.1,64
					C25.5,183.7,46.6,219,77.9,256.6L77.9,256.6z M19.9,83.4c0.8-10.3,5.3-20,12.7-27.2l29.8-29.8c4.6-4.5,9.8-6.8,14.7-6.8
					s9.8,2.3,14.4,7c5.4,5,10.4,10.2,15.8,15.7c2.7,2.8,5.5,5.6,8.3,8.5l23.8,23.8c5,5,7.5,10,7.5,15s-2.6,10-7.5,15
					c-2.5,2.5-5,5-7.4,7.5c-7.4,7.5-14.4,14.6-22.1,21.4l-0.4,0.4c-6.6,6.6-5.6,13-4,17.8c0.1,0.2,0.2,0.4,0.2,0.6
					c6.2,14.8,14.7,28.9,28.1,45.7c24,29.6,49.3,52.6,77.1,70.2c3.4,2.1,6.9,4,10.6,5.8c3,1.5,5.9,3.1,8.8,4.8
					c0.3,0.2,0.6,0.3,0.9,0.5c2.4,1.3,5,2,7.8,2c6.4,0,10.6-4.1,11.9-5.4l29.9-29.9c4.6-4.6,9.7-7.1,14.6-7.1c6.1,0,11,3.8,14.2,7.1
					l48.2,48.2c9.6,9.6,9.5,20-0.2,30.2c-3.4,3.6-6.9,7-10.6,10.6c-5.9,5.5-11.5,11.2-16.7,17.3c-9.2,9.9-20.2,14.6-34.3,14.6
					c-1.4,0-2.8-0.1-4.2-0.2c-26.2-1.7-50.6-11.9-69-20.6c-50-24.2-94.2-58.9-129.6-101.6C63.3,208.4,43.2,175,29.9,139.1
					C21.7,117.1,18.6,99.4,19.9,83.4z"/>
			</g>
		</g>
	</g>
</g>
</svg>
