<svg xmlns="http://www.w3.org/2000/svg" viewBox="0 0 384 384"><title>in</title><g id="Capa_2" data-name="Capa 2"><g id="Capa_1-2" data-name="Capa 1"><path d="M383.9,384v0h.1V243.15c0-68.89-14.83-122-95.37-122-38.73,0-64.71,21.25-75.32,41.39h-1.12V127.62H135.82V384h79.52V257c0-33.42,6.34-65.74,47.73-65.74,40.79,0,41.39,38.14,41.39,67.88V384Z"/><rect x="6.34" y="127.63" width="79.62" height="256.37"/><path d="M46.11,0A46.13,46.13,0,0,0,0,46.11C0,71.57,20.66,92.66,46.11,92.66S92.22,71.57,92.22,46.11A46.14,46.14,0,0,0,46.11,0Z"/></g></g></svg>