<?xml version="1.0" encoding="utf-8"?>
<!-- Generator: Adobe Illustrator 24.0.1, SVG Export Plug-In . SVG Version: 6.00 Build 0)  -->
<svg version="1.1" id="Capa_1" xmlns="http://www.w3.org/2000/svg" xmlns:xlink="http://www.w3.org/1999/xlink" x="0px" y="0px"
	 viewBox="0 0 349.6 392" style="enable-background:new 0 0 349.6 392;" xml:space="preserve">
<style type="text/css">
	.st0{fill:#FFFFFF;}
</style>
<title>locationb</title>
<g id="Capa_2_1_">
	<g id="Capa_1-2">
		<path class="st0" d="M221,292.6c33-54.8,74.8-131.8,74.8-171.4C295.8,54.2,241.6,0,174.7,0S53.6,54.2,53.6,121.1
			c0,39.6,41.8,116.6,74.8,171.4C89.2,295.5,0,306.2,0,341.4C0,376.2,90.6,392,174.8,392s174.8-15.8,174.8-50.6
			C349.5,306.2,260.2,295.5,221,292.6L221,292.6z M70.3,121.1c0-57.7,46.8-104.4,104.4-104.4s104.4,46.8,104.4,104.4
			c0,50.3-80.2,176.6-104.5,213.7C150.4,297.7,70.3,171.4,70.3,121.1z M174.7,375.3c-102.3,0-158.1-22.4-158.1-33.9
			c0-8.9,36.8-28,121.6-32.9c15.9,25.7,28,43.8,29.6,46c2.2,2.9,8.5,6.3,13.8,0c1.7-2,13.7-20.3,29.6-46
			c84.8,4.9,121.6,23.9,121.6,32.9C332.8,353,277,375.3,174.7,375.3z"/>
		<path class="st0" d="M227.4,121.1c0-29.1-23.6-52.7-52.7-52.7c-29.1,0-52.7,23.6-52.7,52.7c0,29.1,23.6,52.7,52.7,52.7l0,0
			C203.8,173.8,227.4,150.2,227.4,121.1C227.4,121.1,227.4,121.1,227.4,121.1z M138.6,121.1c0-19.9,16.2-36.1,36.1-36.1
			s36.1,16.2,36.1,36.1s-16.2,36.1-36.1,36.1C154.8,157.2,138.6,141,138.6,121.1z"/>
	</g>
</g>
</svg>
