<svg xmlns="http://www.w3.org/2000/svg" viewBox="0 0 349.6 392"><defs><style>.cls-1{fill:#231f20;}</style></defs><title>locationb</title><g id="Capa_2" data-name="Capa 2"><g id="Capa_1-2" data-name="Capa 1"><path class="cls-1" d="M221,292.56c33-54.8,74.8-131.84,74.8-171.44a121.12,121.12,0,1,0-242.24,0c0,39.6,41.76,116.64,74.8,171.44C89.2,295.52,0,306.16,0,341.44,0,376.16,90.56,392,174.8,392s174.8-15.84,174.8-50.56c-.08-35.28-89.36-45.92-128.56-48.88ZM70.32,121.12a104.44,104.44,0,1,1,208.88,0c0,50.32-80.16,176.56-104.48,213.68C150.4,297.68,70.32,171.44,70.32,121.12Zm104.4,254.16c-102.32,0-158.08-22.4-158.08-33.92,0-8.88,36.8-28,121.6-32.88,15.92,25.68,28,43.84,29.6,46,2.16,2.88,8.48,6.32,13.84,0,1.68-2,13.68-20.32,29.6-46,84.8,4.88,121.6,23.92,121.6,32.88C332.8,353,277,375.28,174.72,375.28Z"/><path class="cls-1" d="M227.44,121.12a52.72,52.72,0,1,0-52.72,52.72,52.72,52.72,0,0,0,52.72-52.72Zm-88.8,0a36.08,36.08,0,1,1,36.08,36.08,36.09,36.09,0,0,1-36.08-36.08Z"/></g></g></svg>