<svg xmlns="http://www.w3.org/2000/svg" viewBox="0 0 341.92 68.38"><defs><style>.cls-1{fill:#f15a22;}</style></defs><title>logo_takay</title><g id="Capa_2" data-name="Capa 2"><g id="Capa_1-2" data-name="Capa 1"><polygon class="cls-1" points="62.52 0 62.52 22.47 43.96 22.47 43.96 68.38 18.56 68.38 18.56 22.47 0 22.47 0 0 62.52 0"/><path class="cls-1" d="M99.36,43l-5-25.57L89.42,43ZM111,0c0,.07.29,1.09.88,3.08s1.35,4.59,2.29,7.81,2,6.89,3.22,11,2.43,8.27,3.67,12.5q4.39,15,10,34H102.69l-2-9.77H88l-2,9.77H57.76L77.79,0Z"/><polygon class="cls-1" points="184.13 34.19 204.64 68.38 175.33 68.38 161.66 41.03 161.66 68.38 136.26 68.38 136.26 0 161.66 0 161.66 27.35 173.38 0 202.68 0 184.13 34.19"/><path class="cls-1" d="M248.59,43l-5-25.57-5,25.57ZM260.22,0c0,.07.3,1.09.88,3.08s1.35,4.59,2.3,7.81,2,6.89,3.22,11,2.43,8.27,3.66,12.5q4.39,15,10,34H251.92L250,58.61h-12.7l-2,9.77H207L227,0Z"/><polygon class="cls-1" points="305.78 19.54 312.61 0 341.92 0 318.47 42 318.47 68.38 293.08 68.38 293.08 42 269.63 0 298.94 0 305.78 19.54"/></g></g></svg>