<svg xmlns="http://www.w3.org/2000/svg" viewBox="0 0 72 56.57"><defs><style>.cls-1{fill:#1d1d1b;}</style></defs><title>mailb</title><g id="Capa_2" data-name="Capa 2"><g id="Capa_1-2" data-name="Capa 1"><path class="cls-1" d="M65.57,56.57A6.12,6.12,0,0,0,69.78,55L49.39,34.58,48,35.6q-2.28,1.68-3.71,2.63a23.65,23.65,0,0,1-3.8,1.93,11.67,11.67,0,0,1-4.42,1H36a11.67,11.67,0,0,1-4.42-1,23.23,23.23,0,0,1-3.8-1.93Q26.32,37.29,24,35.6l-1.41-1L2.21,55a6.16,6.16,0,0,0,4.22,1.59Z"/><path class="cls-1" d="M4.06,21.74A21.45,21.45,0,0,1,0,18.24v31l18-18q-5.4-3.77-13.92-9.56Z"/><path class="cls-1" d="M68,21.74q-8.21,5.55-14,9.56l18,18v-31a22.07,22.07,0,0,1-4,3.5Z"/><path class="cls-1" d="M65.57,0H6.43A5.74,5.74,0,0,0,1.67,2.09,8,8,0,0,0,0,7.31,9.42,9.42,0,0,0,2.21,12.8a20,20,0,0,0,4.7,4.64l8.24,5.72,6.47,4.5,4.06,2.84.59.42,1.11.8c.87.63,1.6,1.14,2.17,1.53s1.27.82,2.09,1.3A11.85,11.85,0,0,0,34,35.64,6.43,6.43,0,0,0,36,36H36a6.38,6.38,0,0,0,2-.36,11.85,11.85,0,0,0,2.31-1.09c.82-.48,1.51-.91,2.09-1.3s1.3-.9,2.17-1.53l1.11-.8.6-.42,4.06-2.83L65.13,17.44A19.17,19.17,0,0,0,70,12.5a10.67,10.67,0,0,0,2-6.07,6.17,6.17,0,0,0-1.91-4.54A6.21,6.21,0,0,0,65.57,0Z"/></g></g></svg>