<svg xmlns="http://www.w3.org/2000/svg" viewBox="0 0 496 496"><defs><style>.cls-1{fill:#6e6e6e;}</style></defs><title>manos</title><g id="Capa_2" data-name="Capa 2"><g id="Capa_1-2" data-name="Capa 1"><path class="cls-1" d="M496,208H478l-26.79,14.1a39.3,39.3,0,0,0-9.53-3.92L408,209.74v-3.83A56.19,56.19,0,0,0,432,160V146c0-31.08-24.35-57.09-54.28-58-1.52,0-3,0-4.52.09l8.74-20.45L339.57,25.3l-25,16.26a134.67,134.67,0,0,0-29.94-12.42L278.49,0h-61l-6.17,29.14a135,135,0,0,0-29.94,12.43l-25-16.26L114.1,67.64l8.59,20.47c-.32,0-.64-.07-1-.08A56,56,0,0,0,64,144v16a56.15,56.15,0,0,0,24,45.9v3.84l-22,5.5L26.17,192H0V357.77L78.7,384H94l1.91-6.7,24.13,14.48a24.9,24.9,0,0,0,24,24.13,24.91,24.91,0,0,0,24,24,24.91,24.91,0,0,0,24,24A24.87,24.87,0,0,0,231,483.66l7.09,6.26a24.36,24.36,0,0,0,16.1,6.08h1.48A24.36,24.36,0,0,0,280,472a24.33,24.33,0,0,0,24-24,24.34,24.34,0,0,0,24-24,24.61,24.61,0,0,0,24-24.55,24,24,0,0,0-.12-2.4L496,324.94Zm-80-62v14a40.17,40.17,0,0,1-20,34.62l-4,2.31,0,25.32,40,10-88,46.3V257a39.75,39.75,0,0,0-11.46-27.87L360,222.25V196.91l-4-2.31A40.1,40.1,0,0,1,336,160V144a40,40,0,0,1,41.24-40c21.37.64,38.76,19.48,38.76,42ZM260.06,272.25l-36.21-11.58a98.7,98.7,0,0,0-51.26-2.33l-4.59,1V257a24,24,0,0,1,18.18-23.28L232,222.25V196.91l-4-2.31A40.1,40.1,0,0,1,208,160V144a40,40,0,0,1,41.24-40c21.37.64,38.76,19.48,38.76,42v14a40.17,40.17,0,0,1-20,34.62l-4,2.31,0,25.32,45.81,11.45A24,24,0,0,1,328,257v30l-2,1h-4.9l-49.18-14.06a50.76,50.76,0,0,0-11.88-1.69ZM169.79,119.73a87.94,87.94,0,0,1,156.09-.64A55.62,55.62,0,0,0,320,144v16a56.15,56.15,0,0,0,24,45.9v3.84l-32,8-32-8v-3.83A56.19,56.19,0,0,0,304,160V146c0-31.08-24.35-57.09-54.28-58A56,56,0,0,0,192,144v16a56.15,56.15,0,0,0,24,45.9v3.84l-32,8-32-8v-3.83A56.19,56.19,0,0,0,176,160V146a59,59,0,0,0-6.21-26.29ZM133,71.35l25.56-25.56,22.49,14.64,4.31-2.64A119.05,119.05,0,0,1,220,43.43l4.92-1.18L230.49,16h35l5.55,26.24L276,43.41a119.91,119.91,0,0,1,34.64,14.37l4.31,2.65,22.49-14.65L363,71.32l-9.07,21.25A55.73,55.73,0,0,0,337,103.79c-.33.32-.61.67-.93,1a103.89,103.89,0,0,0-176.45.48A56.36,56.36,0,0,0,142,92.75Zm-29,150.9V196.91l-4-2.31A40.1,40.1,0,0,1,80,160V144a40,40,0,0,1,41.24-40c21.37.64,38.76,19.48,38.76,42v14a40.17,40.17,0,0,1-20,34.62l-4,2.31,0,25.32,27.45,6.86A39.75,39.75,0,0,0,152,257v5.93l-25,5.55.64-2.27.31-14.78L85.81,226.79ZM16,208h5.83l57.54,33.56-29,116.12L16,346.23ZM81.3,368l-15.75-5.25L93.75,250,112,260.59v2.29L82,368ZM136,391a9,9,0,0,1,2.62-6.34l14.07-14.06a9,9,0,0,1,12.69,12.68l-14.07,14.06A9,9,0,0,1,136,391Zm24,24a9,9,0,0,1,2.62-6.34l14.07-14.06a9,9,0,0,1,12.69,12.68l-14.07,14.06A9,9,0,0,1,160,415Zm24,24a9,9,0,0,1,2.62-6.34l14.07-14.06a9,9,0,1,1,12.68,12.68l-14.06,14.06A9,9,0,0,1,184,439Zm33,33a9,9,0,0,1-6.35-15.31l14.07-14.07a9,9,0,1,1,12.68,12.69l-14.06,14.06A9,9,0,0,1,217,472Zm38.69,8h-1.48a8.3,8.3,0,0,1-5.52-2.09l-6-5.28,6-6a24.86,24.86,0,0,0,5-7.43l7.27,6.06A8.34,8.34,0,0,1,255.66,480Zm71.74-72H326a8.6,8.6,0,0,1-5.51-2l-43.38-36.15-10.25,12.29L309,417.25A8.35,8.35,0,0,1,303.66,432h-1.75a8.37,8.37,0,0,1-5.34-1.94l-43.45-36.21-10.25,12.3L285,441.26A8.34,8.34,0,0,1,279.66,456a13.19,13.19,0,0,1-8.42-3.05l-17.86-14.88a24.88,24.88,0,0,0-21.48-14,24.91,24.91,0,0,0-24-24,24.91,24.91,0,0,0-24-24,24.91,24.91,0,0,0-42.52-16.78l-14.07,14.06a25.5,25.5,0,0,0-2.24,2.74L100.5,361.37,122,286l54-12A82.41,82.41,0,0,1,219,275.9l11.78,3.77-39.95,20a26.66,26.66,0,0,0-14.8,24v1.58a26.8,26.8,0,0,0,40.59,23l29.79-17.87a16.52,16.52,0,0,1,19.18,1.85L333.15,393a8.61,8.61,0,0,1-5.75,15ZM480,315.05l-134.78,67.4c-.43-.47-.89-.91-1.37-1.34l-67.58-60.83a32.21,32.21,0,0,0-38.13-3.69l-29.8,17.87A10.79,10.79,0,0,1,192,325.2v-1.58a10.74,10.74,0,0,1,6-9.66l44.62-22.31a34.74,34.74,0,0,1,24.94-2.31l50.27,14.35L330,304l150-79Z"/></g></g></svg>