<svg xmlns="http://www.w3.org/2000/svg" viewBox="0 0 512 512"><defs><style>.cls-1{fill:#6d6e71;}</style></defs><title>maso</title><g id="Capa_2" data-name="Capa 2"><g id="Capa_1-2" data-name="Capa 1"><path class="cls-1" d="M253.2,447.72A35,35,0,0,0,225,392H55A35,35,0,0,0,26.81,447.7,50.06,50.06,0,0,0,0,492v10a10,10,0,0,0,10,10H270a10,10,0,0,0,10-10V492A50,50,0,0,0,253.2,447.72ZM44.39,416.37A14.91,14.91,0,0,1,55,412H225a15,15,0,1,1,0,30H55a15,15,0,0,1-10.61-25.61ZM20,492a30,30,0,0,1,30-30H230a30,30,0,0,1,30,30Z"/><path class="cls-1" d="M502.69,420.12a62.86,62.86,0,0,0-12-13.83l-46.73-40.75a9.26,9.26,0,0,0-1.27-1.55,9.65,9.65,0,0,0-2.71-1.92l-28.25-24.65L280.9,223.33a29.94,29.94,0,0,0-8.79-47.76l12.1-12.1a40,40,0,0,0,38.62-10.33,40,40,0,0,0,0-56.57L238,11.72a40,40,0,0,0-66.9,38.61L50.35,171.06A40,40,0,0,0,11.72,238l84.85,84.85a40,40,0,0,0,66.9-38.62l12.08-12.07a30.17,30.17,0,0,0,5.86,8.27,30,30,0,0,0,41.91.5L362.63,441a9.42,9.42,0,0,0,1.36,1.69,6.64,6.64,0,0,0,.55.51l41.51,47.69c1,1.22,2.14,2.42,3.28,3.56A59.49,59.49,0,0,0,451.61,512a61.3,61.3,0,0,0,8.41-.59c18.83-2.6,35.1-13.87,44.65-30.9A59.19,59.19,0,0,0,502.69,420.12ZM358.48,405.73l47.1-47.1,15.11,13.18-49,49Zm-121-139,29.23-29.22L390.48,345.45l-45.16,45.16Zm-42-240.88a20,20,0,0,1,28.29,0l84.85,84.85A20,20,0,0,1,280.41,139L195.56,54.14h0A20,20,0,0,1,195.55,25.86ZM139,308.69a20,20,0,0,1-28.28,0L25.86,223.84a20,20,0,0,1,28.27-28.29L139,280.41A20,20,0,0,1,139,308.69ZM68.28,181.41,181.41,68.28l84.86,84.85-28,28c-.1.08-.18.17-.28.26L181.44,238l-.34.36-28,28ZM202.63,269.2a10,10,0,0,1-7.2-16.95l56.81-56.8a10,10,0,0,1,17,7.18,9.91,9.91,0,0,1-2.93,7.07l-7,7-.14.14L216.8,259.17l-.06.06-7,7A9.93,9.93,0,0,1,202.63,269.2ZM487.22,470.74a40.69,40.69,0,0,1-29.94,20.86,39.73,39.73,0,0,1-33.81-11.33c-.76-.77-1.5-1.57-2.19-2.38l-.09-.11L384.81,436l51-51,41.75,36.42.09.08a42.85,42.85,0,0,1,8.25,9.5A39.46,39.46,0,0,1,487.22,470.74Z"/><path class="cls-1" d="M188.48,103.63a10,10,0,0,0-14.14,0l-42.43,42.43a10,10,0,1,0,14.14,14.14l42.43-42.42A10,10,0,0,0,188.48,103.63Z"/></g></g></svg>