<svg xmlns="http://www.w3.org/2000/svg" xmlns:xlink="http://www.w3.org/1999/xlink" viewBox="0 0 384.62 386.08"><defs><style>.cls-1{fill:none;}.cls-2{clip-path:url(#clip-path);}</style><clipPath id="clip-path" transform="translate(0 -0.8)"><rect class="cls-1" width="384.96" height="387.84"/></clipPath></defs><title>Recurso 1</title><g id="Capa_2" data-name="Capa 2"><g id="Capa_1-2" data-name="Capa 1"><g class="cls-2"><path d="M77.94,257.44A409.59,409.59,0,0,0,214.18,364.16c19.92,9.44,46.56,20.64,76.24,22.56,1.84.08,3.6.16,5.44.16,19.92,0,35.92-6.88,49-21a1.75,1.75,0,0,0,.32-.4,206.13,206.13,0,0,1,15.44-16c3.76-3.6,7.6-7.36,11.28-11.2,17-17.76,17-40.32-.16-57.52l-48.08-48.08c-8.16-8.48-17.92-13-28.16-13s-20.08,4.48-28.48,12.88L238.34,261.2c-2.64-1.52-5.36-2.88-7.92-4.16a98.93,98.93,0,0,1-8.8-4.8c-26.08-16.56-49.76-38.16-72.4-65.92-11.44-14.48-19.12-26.64-24.48-39,7.52-6.8,14.56-13.92,21.36-20.88,2.4-2.48,4.88-5,7.36-7.44,8.64-8.64,13.28-18.64,13.28-28.8S162.18,70,153.46,61.36L129.62,37.52c-2.8-2.8-5.44-5.52-8.16-8.32-5.28-5.44-10.8-11-16.24-16.08C97,5,87.3.8,77.06.8S57.14,5,48.58,13.2L18.66,43.12A61.48,61.48,0,0,0,.34,82.48c-1.52,19.12,2,39.44,11.12,64,14,38,35.12,73.28,66.48,111ZM19.86,84.16A42.32,42.32,0,0,1,32.58,57L62.34,27.2c4.64-4.48,9.76-6.8,14.72-6.8s9.84,2.32,14.4,7c5.36,5,10.4,10.16,15.84,15.68,2.72,2.8,5.52,5.6,8.32,8.48l23.84,23.84c5,5,7.52,10,7.52,15s-2.56,10-7.52,15c-2.48,2.48-5,5-7.44,7.52-7.44,7.52-14.4,14.64-22.08,21.44l-.4.4c-6.64,6.64-5.6,13-4,17.76.08.24.16.4.24.64,6.16,14.8,14.72,28.88,28.08,45.68,24,29.6,49.28,52.56,77.12,70.24a114.51,114.51,0,0,0,10.56,5.76,98.93,98.93,0,0,1,8.8,4.8c.32.16.56.32.88.48a16.72,16.72,0,0,0,7.76,2c6.4,0,10.56-4.08,11.92-5.44l29.92-29.92c4.64-4.64,9.68-7.12,14.64-7.12,6.08,0,11,3.76,14.16,7.12l48.24,48.16c9.6,9.6,9.52,20-.24,30.16-3.36,3.6-6.88,7-10.64,10.64A230.39,230.39,0,0,0,330.26,353c-9.2,9.92-20.16,14.56-34.32,14.56-1.36,0-2.8-.08-4.16-.16-26.24-1.68-50.64-11.92-69-20.64A389.11,389.11,0,0,1,93.14,245.12c-29.84-35.92-49.92-69.36-63.2-105.2-8.24-22-11.36-39.68-10.08-55.76Z" transform="translate(0 -0.8)"/></g></g></g></svg>